<?xml version="1.0" encoding="UTF-8"?> <!-- Generator: Adobe Illustrator 21.0.2, SVG Export Plug-In . SVG Version: 6.00 Build 0) --> <svg xmlns="http://www.w3.org/2000/svg" xmlns:xlink="http://www.w3.org/1999/xlink" id="Layer_1" x="0px" y="0px" viewBox="0 0 512 512" style="enable-background:new 0 0 512 512;" xml:space="preserve"> <style type="text/css"> .st0{fill:#441166;} .st1{fill:#A676CC;} .st2{fill:#CCBB00;} </style> <path class="st0" d="M7.6,220.7L256,331.7l248.4-111.1L256,109.6L7.6,220.7z"></path> <path class="st1" d="M256,402.4c50.8-28.9,151.5-33.3,151.5-33.3V255C339.8,204.8,256,202.5,256,202.5s-83.8,2.4-151.5,52.5v114.1 C104.5,369.1,205.2,373.5,256,402.4z"></path> <path class="st2" d="M372.1,330.7c0,10.6-8.6,19.2-19.2,19.2c-10.6,0-19.2-8.6-19.2-19.2c0-10.6,8.6-19.2,19.2-19.2 C363.5,311.6,372.1,320.1,372.1,330.7z"></path> <path class="st2" d="M373.1,400.4l-19.2-50.5l-19.2,50.5H373.1z"></path> <path d="M507.5,213.7L259.1,102.7c-2-0.9-4.2-0.9-6.2,0l-100.7,45c-3.8,1.7-5.5,6.2-3.8,10c1.7,3.8,6.2,5.5,10,3.8l97.6-43.7 l89.4,40v55.8c-47.4-17.3-87.4-18.7-89.2-18.7c-0.1,0-0.3,0-0.4,0c-1.9,0.1-47.7,1.6-99.6,22.7c-20.7,8.4-39.6,19-56.2,31.2 c-1.2,0.9-2.1,2.2-2.6,3.6l-71.2-31.9L126,176c3.8-1.7,5.5-6.2,3.8-10c-1.7-3.8-6.2-5.5-10-3.8L4.5,213.7C1.8,215,0,217.7,0,220.7 c0,3,1.8,5.7,4.5,6.9l92.5,41.4v36.3c0,4.2,3.4,7.6,7.6,7.6c4.2,0,7.6-3.4,7.6-7.6v-41c0,0,0,0,0,0v-5.3 c14.8-10.6,31.6-19.7,49.8-27.2c47.5-19.4,90.7-21.5,94.1-21.6c3.3,0.1,43.7,2.1,89.4,19.7v75.3c-11.1,3.3-19.2,13.5-19.2,25.7 c0,11.1,6.8,20.7,16.6,24.7l-5.3,13.9c-34.6,5.9-61.9,14.1-81.4,24.4c-44.9-23.6-120.2-30.3-143.9-31.8v-21.2c0-4.2-3.4-7.6-7.6-7.6 c-4.2,0-7.6,3.4-7.6,7.6v28.4c0,4.1,3.2,7.4,7.2,7.6c1,0,99.4,4.6,148.1,32.3c1.2,0.7,2.5,1,3.7,1c1.3,0,2.6-0.3,3.7-1 c16.4-9.3,40.9-17.2,71.4-23.1l-4.5,11.8c-0.9,2.3-0.6,4.9,0.8,7c1.4,2,3.7,3.3,6.2,3.3h38.4c2.5,0,4.8-1.2,6.2-3.3 c1.4-2.1,1.7-4.7,0.8-7l-6.8-18c20.6-2.4,35.3-3,35.4-3c4.1-0.2,7.2-3.5,7.2-7.6v-28.4c0-4.2-3.4-7.6-7.6-7.6 c-4.2,0-7.6,3.4-7.6,7.6V362c-7.1,0.5-18.8,1.4-33.1,3.1l-3.7-9.6c9.7-4,16.6-13.6,16.6-24.7c0-12.1-8.1-22.4-19.2-25.7v-68.8 c14.2,6.5,27.4,14.1,39.4,22.6v5.3v0v41c0,4.2,3.4,7.6,7.6,7.6c4.2,0,7.6-3.4,7.6-7.6v-36.3l92.5-41.4c2.7-1.2,4.5-3.9,4.5-6.9 C512,217.7,510.2,215,507.5,213.7z M344.7,392.8l8.2-21.6l8.2,21.6H344.7z M364.6,330.7c0,6.4-5.2,11.6-11.6,11.6 c-6.4,0-11.6-5.2-11.6-11.6c0-6.4,5.2-11.6,11.6-11.6C359.3,319.1,364.6,324.3,364.6,330.7z M414.6,252.5c-0.5-1.4-1.4-2.7-2.6-3.6 c-15.3-11.3-32.6-21.2-51.5-29.2v-55.1l125.4,56.1L414.6,252.5z"></path> </svg> 