<?xml version="1.0" encoding="UTF-8"?> <!-- Generator: Adobe Illustrator 21.0.2, SVG Export Plug-In . SVG Version: 6.00 Build 0) --> <svg xmlns="http://www.w3.org/2000/svg" xmlns:xlink="http://www.w3.org/1999/xlink" id="Capa_1" x="0px" y="0px" viewBox="0 0 512 512" style="enable-background:new 0 0 512 512;" xml:space="preserve"> <style type="text/css"> .st0{fill:#723E9B;} .st1{fill:#662996;} .st2{fill:#CCBB00;} .st3{fill:#B99BDD;} .st4{fill:#A27DC6;} </style> <path class="st0" d="M379,171.9H133.2c-4.5,0-8.7,2.3-11.2,6.1l-55.9,86c-3.3,5-2.8,11.6,1.2,16.1L246,480.7c5.3,6,14.6,6,19.9,0 l178.7-200.6c4-4.5,4.5-11.1,1.2-16.1l-55.7-86C387.7,174.2,383.5,171.9,379,171.9z"></path> <path class="st1" d="M390.2,178c-2.5-3.8-6.7-6.1-11.2-6.1H133.2c-4.5,0-8.7,2.3-11.2,6.1l-55.9,86c-1.7,2.7-2.4,5.8-2.1,8.8h383.8 c0.3-3-0.3-6.1-2-8.7L390.2,178z"></path> <polygon class="st2" points="320.8,272.8 256,483.3 191.1,272.8 "></polygon> <polygon class="st3" points="191.1,272.8 256,172.6 320.8,272.8 "></polygon> <g> <polygon class="st4" points="58.8,272.8 123.7,172.6 188.5,272.8 "></polygon> <polygon class="st4" points="319.1,272.8 384,172.6 448.9,272.8 "></polygon> </g> <path d="M398.6,172.6c-4.3-6.7-11.6-10.6-19.6-10.6H133.2c-7.9,0-15.2,4-19.6,10.6l-55.9,86c-5.7,8.8-4.8,20.4,2.1,28.2l178.7,200.6 c4.4,5,10.8,7.8,17.4,7.8c0,0,0,0,0,0c6.6,0,13-2.8,17.4-7.8l178.7-200.6c7-7.8,7.9-19.4,2.2-28.2L398.6,172.6z M307.3,282.8 L256,449.3l-51.3-166.5H307.3z M209.5,262.8L256,191l46.5,71.8H209.5z M274,181.9h93.7l-46.8,72.4L274,181.9z M191.3,254.2 l-46.7-72.2H238L191.3,254.2z M237,455.5L83.1,282.8h100.6L237,455.5z M328.2,282.8h100.7L275,455.5L328.2,282.8z M433.1,262.8 h-93.9l46.9-72.6L433.1,262.8z M126,190.2l47,72.6H78.9L126,190.2z"></path> <path d="M30.3,262.8H10c-5.5,0-10,4.5-10,10s4.5,10,10,10h20.3c5.5,0,10-4.5,10-10S35.9,262.8,30.3,262.8z"></path> <path d="M502,262.8h-20.3c-5.5,0-10,4.5-10,10s4.5,10,10,10H502c5.5,0,10-4.5,10-10S507.5,262.8,502,262.8z"></path> <path d="M396.9,142.1c2.6,0,5.1-1,7.1-2.9l33.2-33.2c3.9-3.9,3.9-10.2,0-14.1c-3.9-3.9-10.2-3.9-14.1,0L389.8,125 c-3.9,3.9-3.9,10.2,0,14.1C391.7,141.1,394.3,142.1,396.9,142.1z"></path> <path d="M108.5,139c2,2,4.5,2.9,7.1,2.9s5.1-1,7.1-2.9c3.9-3.9,3.9-10.2,0-14.1L89.4,91.6c-3.9-3.9-10.2-3.9-14.1,0 c-3.9,3.9-3.9,10.2,0,14.1L108.5,139z"></path> <path d="M256.3,102c5.5,0,10-4.5,10-10V26.8c0-5.5-4.5-10-10-10s-10,4.5-10,10V92C246.3,97.5,250.7,102,256.3,102z"></path> <path d="M256.3,135.8c2.6,0,5.2-1.1,7.1-2.9c1.9-1.9,2.9-4.4,2.9-7.1s-1.1-5.2-2.9-7.1c-1.9-1.9-4.4-2.9-7.1-2.9s-5.2,1.1-7.1,2.9 s-2.9,4.4-2.9,7.1c0,2.6,1.1,5.2,2.9,7.1C251,134.7,253.6,135.8,256.3,135.8z"></path> </svg> 